<svg id="Laag_1" data-name="Laag 1" xmlns="http://www.w3.org/2000/svg" viewBox="0 0 1377.93 303.56"><defs><style>.cls-1{font-size:277.48px;fill:#91c256;font-family:CooperBlack, Cooper Black;}.cls-2,.cls-3{fill:none;stroke:#91c256;stroke-miterlimit:10;}.cls-2{stroke-width:15px;}.cls-3{stroke-width:16px;}</style></defs><title>foodsie logo</title><text class="cls-1" transform="translate(0 232.7) scale(1.11 1)">F</text><path class="cls-2" d="M891.36,1284.44c46.15,6.4,85.82-22,94.88-58.69,10.22-41.43-22.14-78.88-42.32-94-39.53-29.49-97.92-22.07-148.14,18.13" transform="translate(-412.42 -1061.56)"/><polyline class="cls-2" points="330.21 109.83 323.33 128.07 413.69 68.32"/><line class="cls-2" x1="339.27" y1="135.87" x2="323.27" y2="128.4"/><path class="cls-3" d="M731.91,1124.86c-46.61,3.58-73.2,33.36-76.2,71.19-3.39,42.67,26.61,78.8,49,89.23C748.5,1305.7,805,1286,848.07,1236" transform="translate(-412.42 -1061.56)"/><polyline class="cls-3" points="484.66 142.14 488.51 122.83 408.93 200.49"/><line class="cls-3" x1="471.5" y1="118.6" x2="488.51" y2="122.49"/><text class="cls-1" transform="translate(590.72 233.92) scale(1.11 1)">DSIE</text></svg>